<svg xmlns="http://www.w3.org/2000/svg" viewBox="0 0 720 220" role="img" aria-labelledby="title desc">
  <title id="title">CNK - Charmant Nyungu K.</title>
  <desc id="desc">Logo horizontal CNK pour Charmant Nyungu K., innovation et souverainete numerique.</desc>
  <defs>
    <linearGradient id="cnkGold" x1="28" y1="24" x2="188" y2="196" gradientUnits="userSpaceOnUse">
      <stop offset="0" stop-color="#FCD34D"/>
      <stop offset="0.42" stop-color="#F59E0B"/>
      <stop offset="1" stop-color="#B45309"/>
    </linearGradient>
    <linearGradient id="cnkInk" x1="24" y1="20" x2="196" y2="200" gradientUnits="userSpaceOnUse">
      <stop offset="0" stop-color="#1E293B"/>
      <stop offset="1" stop-color="#020617"/>
    </linearGradient>
  </defs>
  <rect x="18" y="18" width="184" height="184" rx="44" fill="url(#cnkInk)"/>
  <path d="M158 54c-17-13-39-20-63-16-39 6-66 39-61 79 5 39 39 67 79 62 14-2 26-6 37-14" fill="none" stroke="url(#cnkGold)" stroke-width="12" stroke-linecap="round"/>
  <path d="M66 151V69l70 82V68" fill="none" stroke="#F8FAFC" stroke-width="11" stroke-linecap="round" stroke-linejoin="round"/>
  <path d="M137 110l29-40M137 110l31 42" fill="none" stroke="url(#cnkGold)" stroke-width="12" stroke-linecap="round" stroke-linejoin="round"/>
  <circle cx="160" cy="54" r="5" fill="#FCD34D"/>
  <path d="M50 166h116" fill="none" stroke="#F59E0B" stroke-width="5" stroke-linecap="round" opacity="0.72"/>
  <text x="238" y="94" fill="#0F172A" font-family="Sora, Arial, sans-serif" font-size="54" font-weight="800" letter-spacing="8">CNK</text>
  <text x="238" y="137" fill="#334155" font-family="Sora, Arial, sans-serif" font-size="22" font-weight="700" letter-spacing="4">CHARMANT NYUNGU K.</text>
  <text x="238" y="172" fill="#D97706" font-family="Sora, Arial, sans-serif" font-size="14" font-weight="800" letter-spacing="5">INNOVATION &amp; SOUVERAINETE NUMERIQUE</text>
</svg>
